<svg xmlns="http://www.w3.org/2000/svg" viewBox="779.50 397.50 45.00 45.00" fill="none">
<path d="M782 408C782 403.582 785.582 400 790 400H814C818.418 400 822 403.582 822 408V432C822 436.418 818.418 440 814 440H790C785.582 440 782 436.418 782 432V408Z"></path>
<path d="M790 400V401H814V400V399H790V400ZM822 408H821V432H822H823V408H822ZM814 440V439H790V440V441H814V440ZM782 432H783V408H782H781V432H782ZM790 440V439C786.134 439 783 435.866 783 432H782H781C781 436.971 785.029 441 790 441V440ZM822 432H821C821 435.866 817.866 439 814 439V440V441C818.971 441 823 436.971 823 432H822ZM814 400V401C817.866 401 821 404.134 821 408H822H823C823 403.029 818.971 399 814 399V400ZM790 400V399C785.029 399 781 403.029 781 408H782H783C783 404.134 786.134 401 790 401V400Z" fill="#E5E5E5" mask="url(#path-29-inside-4_82_780)"></path>
<path d="M811 413C811 414.657 806.971 416 802 416C797.029 416 793 414.657 793 413M811 413C811 411.343 806.971 410 802 410C797.029 410 793 411.343 793 413M811 413V416M793 413L793 427C792.994 427.481 793.336 427.955 793.995 428.383C794.655 428.811 795.613 429.179 796.79 429.458C797.966 429.736 799.326 429.916 800.755 429.983C802.184 430.049 803.64 430 805 429.84M811 420L808 425H812L809 430M793 420C793.001 420.468 793.331 420.928 793.961 421.346C794.592 421.764 795.507 422.126 796.633 422.405C797.759 422.684 799.065 422.871 800.446 422.952C801.828 423.033 803.247 423.005 804.59 422.87" stroke="#0A0A0A" stroke-width="2" stroke-linecap="round" stroke-linejoin="round"></path>
</svg>